<?xml version="1.0" encoding="utf-8" ?>
<svg baseProfile="full" height="1024" version="1.1" width="1024" xmlns="http://www.w3.org/2000/svg" xmlns:ev="http://www.w3.org/2001/xml-events" xmlns:xlink="http://www.w3.org/1999/xlink"><defs /><polyline fill="none" points="491,155 490,156 478,156 477,157 469,157 468,158 461,158 460,159 455,159 454,160 448,160 447,161 443,161 442,162 438,162 437,163 433,163 432,164 429,164 428,165 425,165 424,166 421,166 420,167 417,167 416,168 414,168 413,169 410,169 409,170 407,170 406,171 404,171 403,172 401,172 400,173 397,173 396,174 394,174 393,175 392,175 391,176 389,176 388,177 386,177 385,178 383,178 382,179 381,179 380,180 378,180 377,181 376,181 375,182 373,182 372,183 371,183 370,184 369,184 368,185 366,185 365,186 364,186 363,187 362,187 361,188 360,188 359,189 358,189 357,190 356,190 355,191 354,191 353,192 352,192 351,193 350,193 349,194 348,194 347,195 346,195 345,196 344,196 343,197 342,197 341,198 340,198 339,199 338,199 337,200 336,200 334,202 333,202 332,203 331,203 329,205 328,205 327,206 326,206 324,208 323,208 322,209 321,209 319,211 318,211 316,213 315,213 313,215 312,215 310,217 309,217 307,219 306,219 303,222 302,222 300,224 299,224 296,227 295,227 291,231 290,231 286,235 285,235 280,240 279,240 270,249 269,249 250,268 250,269 242,277 242,278 237,283 237,284 232,289 232,290 229,293 229,294 226,297 226,298 223,301 223,302 220,305 220,306 218,308 218,309 216,311 216,312 214,314 214,315 212,317 212,318 210,320 210,321 208,323 208,324 207,325 207,326 205,328 205,329 204,330 204,331 202,333 202,334 201,335 201,336 200,337 200,338 199,339 199,340 197,342 197,343 196,344 196,345 195,346 195,347 194,348 194,349 193,350 193,351 192,352 192,353 191,354 191,355 190,356 190,357 189,358 189,359 188,360 188,361 187,362 187,364 186,365 186,366 185,367 185,368 184,369 184,370 183,371 183,373 182,374 182,375 181,376 181,378 180,379 180,380 179,381 179,383 178,384 178,386 177,387 177,388 176,389 176,391 175,392 175,394 174,395 174,397 173,398 173,400 172,401 172,403 171,404 171,406 170,407 170,410 169,411 169,413 168,414 168,417 167,418 167,420 166,421 166,424 165,425 165,429 164,430 164,433 163,434 163,438 162,439 162,443 161,444 161,449 160,450 160,454 159,455 159,461 158,462 158,469 157,470 157,480 156,481 156,499 155,500 155,523 156,524 156,540 157,541 157,551 158,552 158,559 159,560 159,566 160,567 160,573 161,574 161,578 162,579 162,583 163,584 163,588 164,589 164,593 165,594 165,597 166,598 166,601 167,602 167,604 168,605 168,608 169,609 169,611 170,612 170,615 171,616 171,618 172,619 172,621 173,622 173,624 174,625 174,627 175,628 175,630 176,631 176,633 177,634 177,635 178,636 178,638 179,639 179,641 180,642 180,643 181,644 181,646 182,647 182,648 183,649 183,651 184,652 184,653 185,654 185,655 186,656 186,657 187,658 187,660 188,661 188,662 189,663 189,664 190,665 190,666 191,667 191,668 192,669 192,670 193,671 193,672 194,673 194,674 195,675 195,676 196,677 196,678 197,679 197,680 198,681 198,682 199,683 199,684 200,685 200,686 202,688 202,689 203,690 203,691 204,692 204,693 206,695 206,696 207,697 207,698 209,700 209,701 210,702 210,703 212,705 212,706 214,708 214,709 216,711 216,712 218,714 218,715 220,717 220,718 222,720 222,721 225,724 225,725 227,727 227,728 231,732 231,733 234,736 234,737 239,742 239,743 244,748 244,749 254,759 254,760 268,774 269,774 279,784 280,784 285,789 286,789 290,793 291,793 294,796 295,796 299,800 300,800 302,802 303,802 306,805 307,805 309,807 310,807 312,809 313,809 315,811 316,811 318,813 319,813 321,815 322,815 324,817 325,817 326,818 327,818 329,820 330,820 331,821 332,821 334,823 335,823 336,824 337,824 338,825 339,825 340,826 341,826 343,828 344,828 345,829 346,829 347,830 348,830 349,831 350,831 351,832 352,832 353,833 354,833 355,834 356,834 357,835 358,835 359,836 360,836 361,837 363,837 364,838 365,838 366,839 367,839 368,840 369,840 370,841 372,841 373,842 374,842 375,843 376,843 377,844 379,844 380,845 381,845 382,846 384,846 385,847 387,847 388,848 389,848 390,849 392,849 393,850 395,850 396,851 398,851 399,852 401,852 402,853 404,853 405,854 407,854 408,855 411,855 412,856 414,856 415,857 418,857 419,858 422,858 423,859 426,859 427,860 430,860 431,861 435,861 436,862 439,862 440,863 444,863 445,864 450,864 451,865 456,865 457,866 463,866 464,867 472,867 473,868 481,868 482,869 499,869 500,870 523,870 524,869 542,869 543,868 551,868 552,867 560,867 561,866 567,866 568,865 573,865 574,864 578,864 579,863 583,863 584,862 588,862 589,861 592,861 593,860 597,860 598,859 601,859 602,858 604,858 605,857 608,857 609,856 612,856 613,855 615,855 616,854 618,854 619,853 621,853 622,852 624,852 625,851 627,851 628,850 630,850 631,849 633,849 634,848 636,848 637,847 638,847 639,846 641,846 642,845 644,845 645,844 646,844 647,843 648,843 649,842 651,842 652,841 653,841 654,840 655,840 656,839 657,839 658,838 660,838 661,837 662,837 663,836 664,836 665,835 666,835 667,834 668,834 669,833 670,833 671,832 672,832 673,831 674,831 675,830 676,830 677,829 678,829 679,828 680,828 682,826 683,826 684,825 685,825 686,824 687,824 689,822 690,822 691,821 692,821 693,820 694,820 696,818 697,818 699,816 700,816 701,815 702,815 704,813 705,813 707,811 708,811 710,809 711,809 713,807 714,807 716,805 717,805 720,802 721,802 723,800 724,800 727,797 728,797 732,793 733,793 737,789 738,789 743,784 744,784 752,776 753,776 771,758 771,757 780,748 780,747 786,741 786,740 790,736 790,735 793,732 793,731 797,727 797,726 800,723 800,722 802,720 802,719 804,717 804,716 806,714 806,713 809,710 809,709 811,707 811,706 812,705 812,704 814,702 814,701 816,699 816,698 817,697 817,696 819,694 819,693 820,692 820,691 821,690 821,689 823,687 823,686 824,685 824,684 825,683 825,682 826,681 826,680 827,679 827,678 828,677 828,676 830,674 830,673 831,672 831,671 832,670 832,669 833,668 833,666 834,665 834,664 835,663 835,662 836,661 836,660 837,659 837,658 838,657 838,656 839,655 839,653 840,652 840,651 841,650 841,649 842,648 842,646 843,645 843,644 844,643 844,641 845,640 845,638 846,637 846,636 847,635 847,633 848,632 848,630 849,629 849,627 850,626 850,624 851,623 851,621 852,620 852,618 853,617 853,614 854,613 854,611 855,610 855,607 856,606 856,604 857,603 857,600 858,599 858,595 859,594 859,591 860,590 860,587 861,586 861,581 862,580 862,576 863,575 863,570 864,569 864,564 865,563 865,556 866,555 866,548 867,547 867,535 868,534 868,490 867,489 867,479 866,478 866,470 865,469 865,461 864,460 864,455 863,454 863,449 862,448 862,444 861,443 861,438 860,437 860,434 859,433 859,429 858,428 858,425 857,424 857,421 856,420 856,417 855,416 855,414 854,413 854,410 853,409 853,407 852,406 852,404 851,403 851,401 850,400 850,398 849,397 849,395 848,394 848,392 847,391 847,389 846,388 846,387 845,386 845,384 844,383 844,381 843,380 843,379 842,378 842,377 841,376 841,374 840,373 840,372 839,371 839,369 838,368 838,367 837,366 837,365 836,364 836,363 835,362 835,360 834,359 834,358 833,357 833,356 832,355 832,354 831,353 831,352 830,351 830,350 829,349 829,348 828,347 828,346 826,344 826,343 825,342 825,341 824,340 824,339 823,338 823,337 821,335 821,334 820,333 820,332 819,331 819,330 817,328 817,327 816,326 816,325 814,323 814,322 812,320 812,319 810,317 810,316 809,315 809,314 806,311 806,310 804,308 804,307 802,305 802,304 799,301 799,300 796,297 796,296 793,293 793,292 789,288 789,287 785,283 785,282 780,277 780,276 770,266 770,265 756,251 755,251 746,242 745,242 739,236 738,236 733,231 732,231 728,227 727,227 724,224 723,224 721,222 720,222 717,219 716,219 714,217 713,217 711,215 710,215 708,213 707,213 705,211 704,211 702,209 701,209 699,207 698,207 697,206 696,206 694,204 693,204 692,203 691,203 689,201 688,201 687,200 686,200 685,199 684,199 682,197 681,197 680,196 679,196 678,195 677,195 676,194 675,194 674,193 673,193 672,192 671,192 670,191 669,191 668,190 667,190 666,189 665,189 664,188 663,188 662,187 661,187 660,186 658,186 657,185 656,185 655,184 654,184 653,183 652,183 651,182 649,182 648,181 647,181 646,180 644,180 643,179 642,179 641,178 639,178 638,177 636,177 635,176 634,176 633,175 631,175 630,174 628,174 627,173 625,173 624,172 622,172 621,171 619,171 618,170 615,170 614,169 612,169 611,168 609,168 608,167 605,167 604,166 601,166 600,165 597,165 596,164 592,164 591,163 588,163 587,162 583,162 582,161 577,161 576,160 571,160 570,159 565,159 564,158 557,158 556,157 548,157 547,156 535,156 534,155" stroke="black" stroke-width="2" /></svg>